# File created by Blade
# Date/Time:  Wed Jan 21 19:08:52 2015
# Frame Rate: 120.000 fps
#------------------------------------------------------
:FULLY-SPECIFIED
:DEGREES
3548
root -3.180889 33.605183 -2.331510 16.902423 52.624344 -22.232017
RightUpLeg -125.952500 17.359612 -8.938723
RightLeg 87.447573 -0.000000 -0.000000
RightFoot 12.947165 0.844515 20.116897
RightToeBase 22.034958 -0.000000 -0.000000
LeftUpLeg -35.667353 9.931559 5.134709
LeftLeg 11.658663 -0.000000 -0.000000
LeftFoot -10.029069 -2.827490 -0.475173
LeftToeBase -1.705069 -0.000000 0.000000
Spine -47.189961 -37.323663 38.485990
RightShoulder -32.307938 7.433727 -47.645687
RightArm -15.504771 -9.227569 42.377908
RightForeArm 4.803723 0.000000 -0.422655
RightHand 14.888172 0.000000 -5.507486
RightHandThumb1 -24.326973 -0.000000 -32.862282
LeftShoulder -7.033963 -1.573902 27.597483
LeftArm 28.522969 46.314484 -79.169432
LeftForeArm 34.978993 0.000000 39.735390
LeftHand -16.358632 -0.000000 -27.890503
LeftHandThumb1 -26.253704 0.000000 33.147579
Head 0.473284 -59.978482 8.967326
3549
root -3.170160 33.616610 -2.319512 16.961217 52.559421 -22.158804
RightUpLeg -126.019057 17.337291 -9.040539
RightLeg 87.561479 -0.000000 -0.000000
RightFoot 12.787967 0.794612 20.055984
RightToeBase 22.029278 -0.000000 -0.000000
LeftUpLeg -35.606776 10.030470 5.083274
LeftLeg 11.589067 -0.000000 -0.000000
LeftFoot -9.867733 -2.971680 -0.582295
LeftToeBase -1.755117 -0.000000 0.000000
Spine -47.207539 -37.353123 38.498907
RightShoulder -32.347459 7.231055 -47.707309
RightArm -15.785355 -9.290731 42.365091
RightForeArm 5.004966 -0.000000 -0.624450
RightHand 15.217989 0.000000 -5.465324
RightHandThumb1 -24.326973 -0.000000 -32.862282
LeftShoulder -7.139505 -1.517427 27.607740
LeftArm 28.422274 46.265681 -79.235832
LeftForeArm 35.039882 -0.000000 39.927289
LeftHand -16.416120 0.000000 -27.889168
LeftHandThumb1 -26.253704 0.000000 33.147579
Head 0.435483 -59.893537 8.917175
3550
root -3.161929 33.625516 -2.311680 17.144341 52.523118 -22.013324
RightUpLeg -126.174919 17.265215 -9.216115
RightLeg 87.674695 -0.000000 -0.000000
RightFoot 12.672756 0.786647 20.059987
RightToeBase 21.997711 -0.000000 -0.000000
LeftUpLeg -35.622675 10.021455 5.014919
LeftLeg 11.522776 -0.000000 -0.000000
LeftFoot -9.706922 -2.994740 -0.671981
LeftToeBase -1.820891 -0.000000 0.000000
Spine -47.328232 -37.361253 38.530379
RightShoulder -32.417294 7.060432 -47.848157
RightArm -16.057151 -9.353260 42.391562
RightForeArm 5.223960 -0.000000 -0.798401
RightHand 15.299914 -0.000000 -5.383675
RightHandThumb1 -24.326973 -0.000000 -32.862282
LeftShoulder -7.231059 -1.449987 27.627748
LeftArm 28.387977 46.236936 -79.244489
LeftForeArm 35.039956 -0.000000 40.088160
LeftHand -16.452313 -0.000000 -27.888702
LeftHandThumb1 -26.253704 0.000000 33.147579
Head 0.506808 -59.799738 8.764986
3551
root -3.155562 33.638061 -2.299659 17.180727 52.475802 -21.991598
RightUpLeg -126.235688 17.262188 -9.271606
RightLeg 87.732312 -0.000000 -0.000000
RightFoot 12.553180 0.759512 19.915067
RightToeBase 22.062566 -0.000000 -0.000000
LeftUpLeg -35.582820 10.054721 5.023056
LeftLeg 11.446883 -0.000000 -0.000000
LeftFoot -9.559813 -3.012078 -0.791360
LeftToeBase -1.864741 -0.000000 0.000000
Spine -47.369837 -37.384545 38.565187
RightShoulder -32.486814 6.942064 -47.957132
RightArm -16.374932 -9.284226 42.339849
RightForeArm 5.398684 0.000000 -0.857096
RightHand 15.105434 -0.000000 -5.256234
RightHandThumb1 -24.326973 -0.000000 -32.862282
LeftShoulder -7.335412 -1.431859 27.655556
LeftArm 28.279584 46.216616 -79.324108
LeftForeArm 35.077426 0.000000 40.218557
LeftHand -16.484368 -0.000000 -27.955586
LeftHandThumb1 -26.253704 0.000000 33.147579
Head 0.642107 -59.717263 8.612021
3552
root -3.149654 33.650037 -2.287145 17.190477 52.420439 -21.988436
RightUpLeg -126.295781 17.278221 -9.336272
RightLeg 87.782498 -0.000000 -0.000000
RightFoot 12.568682 0.789273 19.664038
RightToeBase 21.937993 -0.000000 -0.000000
LeftUpLeg -35.525386 10.128024 5.015128
LeftLeg 11.358160 -0.000000 -0.000000
LeftFoot -9.414717 -3.036060 -0.906941
LeftToeBase -1.918410 -0.000000 0.000000
Spine -47.407401 -37.404599 38.602362
RightShoulder -32.534413 6.852835 -48.067059
RightArm -16.712197 -9.012340 42.216291
RightForeArm 5.398497 -0.000000 -0.862326
RightHand 14.894868 -0.000000 -5.302934
RightHandThumb1 -24.326973 -0.000000 -32.862282
LeftShoulder -7.438583 -1.398731 27.657515
LeftArm 28.193076 46.186258 -79.379335
LeftForeArm 35.027623 -0.000000 40.314149
LeftHand -16.516542 -0.000000 -27.959665
LeftHandThumb1 -26.253704 0.000000 33.147579
Head 0.860516 -59.625297 8.378336
3553
root -3.144324 33.663587 -2.271157 17.041881 52.314663 -22.062127
RightUpLeg -126.230369 17.390180 -9.308564
RightLeg 87.784856 -0.000000 -0.000000
RightFoot 12.540799 0.799972 19.535501
RightToeBase 21.847342 -0.000000 -0.000000
LeftUpLeg -35.354717 10.334880 5.010034
LeftLeg 11.243622 -0.000000 -0.000000
LeftFoot -9.275514 -3.096395 -0.914634
LeftToeBase -1.988851 -0.000000 0.000000
Spine -47.293156 -37.440773 38.556624
RightShoulder -32.588483 6.718124 -48.108593
RightArm -16.991819 -8.672012 42.050000
RightForeArm 5.422016 -0.000000 -0.857153
RightHand 14.763275 -0.000000 -5.306743
RightHandThumb1 -24.326973 -0.000000 -32.862282
LeftShoulder -7.520770 -1.374785 27.646903
LeftArm 28.085586 46.139828 -79.443915
LeftForeArm 35.053975 -0.000000 40.405552
LeftHand -16.565632 -0.000000 -27.936303
LeftHandThumb1 -26.253704 0.000000 33.147579
Head 1.125645 -59.554068 8.144964
3554
root -3.139935 33.672560 -2.258868 17.073972 52.268721 -22.031061
RightUpLeg -126.280801 17.412512 -9.356611
RightLeg 87.799571 -0.000000 -0.000000
RightFoot 12.512359 0.801874 19.528738
RightToeBase 21.753259 -0.000000 -0.000000
LeftUpLeg -35.301424 10.479661 4.924889
LeftLeg 11.129160 -0.000000 -0.000000
LeftFoot -9.162796 -3.098565 -0.991513
LeftToeBase -2.035997 -0.000000 0.000000
Spine -47.349198 -37.479255 38.578450
RightShoulder -32.648794 6.734579 -48.284034
RightArm -17.360414 -8.502147 41.960445
RightForeArm 5.446216 -0.000000 -0.834144
RightHand 14.709674 -0.000000 -5.439586
RightHandThumb1 -24.326973 -0.000000 -32.862282
LeftShoulder -7.609660 -1.346892 27.651966
LeftArm 27.994656 46.113046 -79.508852
LeftForeArm 35.055689 -0.000000 40.489154
LeftHand -16.521380 -0.000000 -27.920865
LeftHandThumb1 -26.253704 0.000000 33.147579
Head 1.411612 -59.459418 7.887038
3555
root -3.135837 33.677626 -2.249168 17.174837 52.275801 -21.955984
RightUpLeg -126.370011 17.367227 -9.413341
RightLeg 87.828949 -0.000000 -0.000000
RightFoot 12.508519 0.822236 19.621403
RightToeBase 21.820680 -0.000000 -0.000000
LeftUpLeg -35.292133 10.563092 4.816543
LeftLeg 11.011686 -0.000000 -0.000000
LeftFoot -9.022756 -3.131466 -0.951493
LeftToeBase -2.078103 -0.000000 0.000000
Spine -47.471399 -37.534526 38.636145
RightShoulder -32.726059 6.678351 -48.409023
RightArm -17.614132 -8.365288 41.883826
RightForeArm 5.471227 -0.000000 -0.831176
RightHand 14.592038 -0.000000 -5.662489
RightHandThumb1 -24.326973 -0.000000 -32.862282
LeftShoulder -7.688198 -1.337057 27.673303
LeftArm 27.874798 46.066909 -79.619838
LeftForeArm 35.096207 -0.000000 40.571636
LeftHand -16.561831 -0.000000 -28.009551
LeftHandThumb1 -26.253704 0.000000 33.147579
Head 1.593429 -59.378653 7.706279
3556
root -3.131209 33.681521 -2.235189 17.214327 52.263742 -21.909499
RightUpLeg -126.418089 17.372587 -9.455817
RightLeg 87.846935 -0.000000 -0.000000
RightFoot 12.502360 0.841587 19.712464
RightToeBase 21.811422 -0.000000 -0.000000
LeftUpLeg -35.226424 10.668829 4.737513
LeftLeg 10.891508 -0.000000 -0.000000
LeftFoot -8.925891 -3.191207 -0.891288
LeftToeBase -2.142684 -0.000000 0.000000
Spine -47.558469 -37.596974 38.675958
RightShoulder -32.786405 6.617582 -48.521278
RightArm -17.815225 -8.355077 41.848778
RightForeArm 5.578961 -0.000000 -0.938954
RightHand 14.941213 -0.000000 -5.769499
RightHandThumb1 -24.326973 -0.000000 -32.862282
LeftShoulder -7.744570 -1.354625 27.686029
LeftArm 27.832878 46.124776 -79.607696
LeftForeArm 34.981338 -0.000000 40.598158
LeftHand -16.560154 -0.000000 -28.068177
LeftHandThumb1 -26.253704 0.000000 33.147579
Head 1.841178 -59.287952 7.463813
3557
root -3.135095 33.685264 -2.225162 17.177576 52.203327 -21.919688
RightUpLeg -126.418878 17.446037 -9.465817
RightLeg 87.783485 -0.000000 -0.000000
RightFoot 12.512882 0.809646 19.770932
RightToeBase 21.904161 -0.000000 -0.000000
LeftUpLeg -35.151020 10.813689 4.703145
LeftLeg 10.814463 -0.000000 -0.000000
LeftFoot -8.884520 -3.247511 -0.887132
LeftToeBase -2.167900 -0.000000 0.000000
Spine -47.530468 -37.669383 38.656195
RightShoulder -32.838499 6.547678 -48.563120
RightArm -18.027417 -8.271622 41.807133
RightForeArm 5.539121 0.000000 -0.830488
RightHand 14.722782 0.000000 -6.036694
RightHandThumb1 -24.326973 -0.000000 -32.862282
LeftShoulder -7.807230 -1.400329 27.728733
LeftArm 27.735484 46.134705 -79.673114
LeftForeArm 34.999184 -0.000000 40.588624
LeftHand -16.571663 -0.000000 -28.156480
LeftHandThumb1 -26.253704 0.000000 33.147579
Head 1.992211 -59.184166 7.377137
3558
root -3.134211 33.685661 -2.211372 17.173176 52.204832 -21.909717
RightUpLeg -126.443283 17.468627 -9.467137
RightLeg 87.776705 -0.000000 -0.000000
RightFoot 12.507857 0.800663 19.804090
RightToeBase 21.864741 -0.000000 -0.000000
LeftUpLeg -35.089388 10.887973 4.679200
LeftLeg 10.733570 -0.000000 -0.000000
LeftFoot -8.855683 -3.308577 -0.844478
LeftToeBase -2.223276 -0.000000 0.000000
Spine -47.599744 -37.757510 38.701871
RightShoulder -32.881868 6.455623 -48.623202
RightArm -18.182384 -8.235707 41.790674
RightForeArm 5.487351 -0.000000 -0.768942
RightHand 14.661708 -0.000000 -6.366140
RightHandThumb1 -24.326973 -0.000000 -32.862282
LeftShoulder -7.846776 -1.430078 27.775489
LeftArm 27.642731 46.158394 -79.749927
LeftForeArm 34.982295 -0.000000 40.568357
LeftHand -16.563414 -0.000000 -28.221748
LeftHandThumb1 -26.253704 0.000000 33.147579
Head 2.223296 -59.100953 7.184657
3559
root -3.134567 33.683980 -2.195580 17.146756 52.215938 -21.921535
RightUpLeg -126.451365 17.493624 -9.424162
RightLeg 87.759755 -0.000000 -0.000000
RightFoot 12.498968 0.826473 19.876083
RightToeBase 22.110340 -0.000000 -0.000000
LeftUpLeg -35.036957 10.982518 4.664941
LeftLeg 10.676400 -0.000000 -0.000000
LeftFoot -8.874708 -3.408287 -0.914043
LeftToeBase -2.190404 -0.000000 0.000000
Spine -47.662769 -37.851884 38.743650
RightShoulder -32.908860 6.390468 -48.675092
RightArm -18.362190 -8.192457 41.732889
RightForeArm 5.201783 -0.000000 -0.686133
RightHand 14.659110 0.000000 -6.364098
RightHandThumb1 -24.326973 -0.000000 -32.862282
LeftShoulder -7.874165 -1.475267 27.835408
LeftArm 27.551100 46.201280 -79.824307
LeftForeArm 34.910684 -0.000000 40.538137
LeftHand -16.601882 0.000000 -28.302346
LeftHandThumb1 -26.253704 0.000000 33.147579
Head 2.415635 -59.047391 7.034924
